<svg width="512" height="512" viewBox="0 0 512 512" fill="none" xmlns="http://www.w3.org/2000/svg">
<path d="M256 498.8C390.039 498.8 498.7 390.14 498.7 256.1C498.7 122.061 390.039 13.4 256 13.4C121.96 13.4 13.3 122.061 13.3 256.1C13.3 390.14 121.96 498.8 256 498.8Z" fill="white"/>
<path d="M256 498.45C389.957 498.45 498.55 389.857 498.55 255.9C498.55 121.943 389.957 13.35 256 13.35C122.043 13.35 13.45 121.943 13.45 255.9C13.45 389.857 122.043 498.45 256 498.45Z" stroke="#F8CD2E" stroke-width="14.7"/>
<path fill-rule="evenodd" clip-rule="evenodd" d="M256 151.9L157.8 201L256 250L354.2 200.9L256 151.9ZM256 274.4L109.2 201L256 127.5L402.8 200.9L256 274.4ZM256 300L373.5 241.3L402.9 256L256 329.4L109.2 256L138.6 241.3L256 300ZM138.5 296.4L256 355.1L373.5 296.4L402.9 311.1L256 384.5L109.2 311.1L138.5 296.4Z" fill="#F8CD2E"/>
</svg>
